<svg xmlns="http://www.w3.org/2000/svg" viewBox="0 0 217.24 53.61"><defs><style>.cls-1{fill:#fff;}</style></defs><g id="Layer_2" data-name="Layer 2"><g id="Layer_1-2" data-name="Layer 1"><path class="cls-1" d="M45.75,7.86A25.8,25.8,0,0,0,28.05,0a29.85,29.85,0,0,0-4,.1A25.91,25.91,0,0,0,7.83,7.9,25.81,25.81,0,0,0,0,25.58,26,26,0,0,0,7.87,45.75a25.78,25.78,0,0,0,17.58,7.83,26,26,0,0,0,20.3-7.82,26.13,26.13,0,0,0,7.84-17.51c0-.48,0-1,0-1.45A26.35,26.35,0,0,0,45.75,7.86M26.73,51A24.18,24.18,0,1,1,51,26.81c0,.48,0,1-.05,1.44A24.22,24.22,0,0,1,26.73,51"/><path class="cls-1" d="M16.59,8.37c0,.2,0,.41,0,.61a64.24,64.24,0,0,0-.14,9,54.29,54.29,0,0,0,.85,7.33c.4,2.07.85,4.14,1.42,6.17s1.3,4.12,2,6.15a52.75,52.75,0,0,0,2.94,6.56c1,1.82,2,3.6,3,5.4l.19.32a1.69,1.69,0,0,0,.2-.23,68.11,68.11,0,0,0,4.11-7.79C32,40,32.8,38.14,33.5,36.22c.63-1.75,1.15-3.54,1.66-5.33a46.38,46.38,0,0,0,1.4-6.6c.26-1.88.44-3.78.61-5.67a55.88,55.88,0,0,0,.06-7.32c0-.86-.12-1.71-.19-2.57V8.44a.92.92,0,0,1,.2.1,22.41,22.41,0,0,1,6.37,7.92l.11.24a.43.43,0,0,1-.23.64c-.48.22-1,.4-1.46.6s-.48.31-.32.74A7.85,7.85,0,0,0,43.15,21c.67.77.79.66.4,1.77S42.94,25,42.61,26a54.37,54.37,0,0,1-5.27,12,46.77,46.77,0,0,1-5.75,7.88,34,34,0,0,1-4.31,3.91c-.45.34-.45.33-.89,0a39.57,39.57,0,0,1-9.65-11A47.3,47.3,0,0,1,12.06,29c-.54-1.59-1.1-3.18-1.63-4.77-.23-.69-.4-1.4-.6-2.1a.88.88,0,0,1,.24-.88,9.4,9.4,0,0,0,1.8-2.72c.16-.39.11-.53-.29-.68l-1.37-.54c-.49-.19-.54-.33-.32-.81a20.7,20.7,0,0,1,4.34-6.21c.54-.54,1.12-1.05,1.68-1.57.19-.16.4-.29.6-.43l.08,0"/><path class="cls-1" d="M33.71,9.91A9.53,9.53,0,0,1,33.18,13c-.08.21-.23.34-.47.24l-3.58-1.63a1.3,1.3,0,0,1-.41-.28,1,1,0,0,0-1-.26,4.33,4.33,0,0,1-1.72,0,1.31,1.31,0,0,0-1.08.26,12.5,12.5,0,0,1-1.7.9c-.68.33-1.38.62-2.06.93-.42.19-.57.14-.71-.3A9.18,9.18,0,0,1,20,8.43c.1-.62.27-1.22.43-1.83.08-.31.25-.39.53-.27,1.17.52,2.34,1,3.5,1.59a1.87,1.87,0,0,1,.49.34.89.89,0,0,0,.83.24,4.62,4.62,0,0,1,2.06,0,.89.89,0,0,0,.78-.21,6.58,6.58,0,0,1,1.88-1c.66-.29,1.31-.57,2-.87.45-.21.59-.18.74.27a9.06,9.06,0,0,1,.49,2.87c0,.12,0,.24,0,.36"/><path class="cls-1" d="M25.48,37.75a1.48,1.48,0,0,1,1.38-1.39,1.39,1.39,0,0,1,0,2.77,1.48,1.48,0,0,1-1.39-1.38"/><path class="cls-1" d="M25.48,17.1a1.46,1.46,0,0,1,1.36-1.37,1.5,1.5,0,0,1,1.39,1.38,1.54,1.54,0,0,1-1.37,1.39,1.49,1.49,0,0,1-1.38-1.4"/><path class="cls-1" d="M25.48,27.42A1.46,1.46,0,0,1,26.83,26a1.38,1.38,0,0,1,0,2.76,1.45,1.45,0,0,1-1.37-1.38"/><path class="cls-1" d="M67.68,12.94h-8c-1,0-1.46-.38-1.46-1.2s.49-1.2,1.46-1.2H78.8c1,0,1.49.41,1.49,1.17s-.5,1.23-1.49,1.23h-8V29.7c0,.82-.52,1.23-1.55,1.23s-1.61-.41-1.61-1.23Z"/><path class="cls-1" d="M82.11,24.64v1.78c0,1.38,1.34,2.08,4.06,2.08H90.5c1,0,1.47.38,1.47,1.14s-.5,1.14-1.47,1.14H86.17c-4.74,0-7.13-1.43-7.13-4.33V20.72c0-2.75,2.13-4.15,6.37-4.15h8.46q6.22,0,6.23,3.74v3.28c0,.7-.47,1.05-1.35,1.05Zm0-2H96.79c.18,0,.24-.09.24-.2V20.9c0-1.35-1.12-2-3.4-2h-8c-2.34,0-3.48.67-3.48,2Z"/><path class="cls-1" d="M112,25.22l-7.78,5.3a1.72,1.72,0,0,1-1.22.41c-1,0-1.53-.41-1.53-1.17a1.31,1.31,0,0,1,.71-1.05l7.49-5.12-7-4.89a1.33,1.33,0,0,1-.74-1.11c0-.79.53-1.17,1.58-1.17a2,2,0,0,1,1.29.44L112.24,22l7.57-5.18a2.1,2.1,0,0,1,1.23-.44c1,0,1.52.41,1.52,1.2a1.27,1.27,0,0,1-.7,1.05l-7.28,5,7.25,5a1.43,1.43,0,0,1,.73,1.11c0,.79-.52,1.17-1.57,1.17a1.9,1.9,0,0,1-1.32-.44Z"/><path class="cls-1" d="M139.74,17.36,144.92,27l4.91-9.74a1.49,1.49,0,0,1,1.49-.88c.94,0,1.55.47,1.55,1.2a1.52,1.52,0,0,1-.2.73L146.5,30a1.56,1.56,0,0,1-1.55,1,1.53,1.53,0,0,1-1.53-.94l-5.23-9.56L133,30a1.54,1.54,0,0,1-1.52.94,1.49,1.49,0,0,1-1.55-1l-6.2-11.61a1.38,1.38,0,0,1-.18-.73c0-.73.62-1.2,1.56-1.2a1.54,1.54,0,0,1,1.52.88L131.46,27l5.18-9.65a1.75,1.75,0,0,1,3.1,0Z"/><path class="cls-1" d="M161.77,30.78c-5.06,0-7.58-1.55-7.58-4.62V21.22q0-4.65,7.58-4.65h5.64c5.07,0,7.58,1.55,7.58,4.65v4.94c0,3.07-2.51,4.62-7.58,4.62Zm10.09-9.59c0-1.49-1.46-2.23-4.36-2.23h-5.85c-2.86,0-4.33.74-4.33,2.23v5c0,1.46,1.47,2.22,4.33,2.22h5.85c2.9,0,4.36-.76,4.36-2.22Z"/><path class="cls-1" d="M177.48,21.22q0-4.65,7.55-4.65h2.25c1,0,1.49.41,1.49,1.2S188.28,19,187.28,19h-2.37c-2.87,0-4.33.74-4.33,2.2V29.7c0,.82-.52,1.23-1.55,1.23s-1.55-.44-1.55-1.23Z"/><path class="cls-1" d="M190.47,11.21c0-.79.53-1.23,1.55-1.23s1.55.44,1.55,1.23V29.7c0,.82-.53,1.23-1.55,1.23s-1.55-.41-1.55-1.23Z"/><path class="cls-1" d="M203.78,30.78c-5,0-7.55-1.55-7.55-4.62V21.22c0-3.1,2.55-4.65,7.55-4.65h10.33V11.21c0-.79.55-1.23,1.57-1.23s1.56.44,1.56,1.23v15c0,3.07-2.52,4.62-7.55,4.62Zm10.33-4.59V19H203.69c-2.86,0-4.33.74-4.33,2.23v5c0,1.46,1.47,2.22,4.33,2.22h6.09C212.64,28.41,214.11,27.65,214.11,26.19Z"/><path class="cls-1" d="M78.9,43C77.61,43,77,42.53,77,41.66v-3c0-.19.12-.28.35-.28s.36.09.36.28v3c0,.52.41.77,1.25.77h1.43c.84,0,1.24-.25,1.24-.77v-3c0-.19.13-.28.37-.28s.35.09.35.28v3c0,.87-.65,1.29-1.93,1.29Z"/><path class="cls-1" d="M83.8,38.52l4,3.49V38.64c0-.18.11-.27.35-.27s.36.09.36.27v4.07c0,.18-.13.28-.38.28a.51.51,0,0,1-.35-.16l-4-3.49v3.37c0,.18-.13.28-.37.28s-.34-.1-.34-.28V38.65c0-.19.12-.28.36-.28A.49.49,0,0,1,83.8,38.52Z"/><path class="cls-1" d="M89.26,38.65c0-.19.12-.28.36-.28s.35.09.35.28v4.06c0,.18-.13.28-.37.28s-.34-.1-.34-.28Z"/><path class="cls-1" d="M90.72,39.63q0-1.23,1.89-1.23h.78c.22,0,.33.1.33.27s-.11.27-.33.27h-.77c-.8,0-1.19.24-1.19.7v.79h3.9c.22,0,.32.1.32.27s-.1.27-.32.27h-3.9v1.74c0,.18-.12.28-.35.28s-.36-.1-.36-.28Z"/><path class="cls-1" d="M98.08,43c-1.28,0-1.93-.42-1.93-1.26v-2c0-.84.64-1.26,1.9-1.26h1.46c1.27,0,1.9.42,1.9,1.26v2c0,.84-.65,1.26-1.93,1.26Zm2.62-3.28c0-.48-.4-.73-1.2-.73H98.06c-.79,0-1.2.25-1.2.73v2c0,.49.41.74,1.21.74h1.42c.81,0,1.21-.25,1.21-.74Z"/><path class="cls-1" d="M102.86,41.17v1.54c0,.18-.12.28-.36.28s-.35-.1-.35-.28V38.63c0-.15.11-.23.31-.23h3.09c1.36,0,2,.37,2,1.12V40c0,.73-.68,1.1-2,1.1H104L107,42.45c.13.06.19.13.19.25s-.13.29-.36.29a.5.5,0,0,1-.25-.07Zm0-.56h2.71c.88,0,1.31-.2,1.31-.6v-.48c0-.39-.43-.59-1.31-.59h-2.65s-.06,0-.06.05Z"/><path class="cls-1" d="M114.67,39.57l-2.5,3.24a.47.47,0,0,1-.74,0l-2.49-3.23v3.13c0,.18-.12.28-.36.28s-.35-.1-.35-.28v-4c0-.19.13-.3.36-.3a.45.45,0,0,1,.4.2l2.81,3.65,2.82-3.65a.47.47,0,0,1,.4-.2c.24,0,.36.11.36.3v4c0,.18-.12.28-.35.28s-.36-.1-.36-.28Z"/><path class="cls-1" d="M121,41.91c0,.69-.67,1-2,1h-2.66c-.22,0-.34-.09-.34-.27s.12-.27.34-.27H119q1.29,0,1.29-.54V41.4c0-.35-.4-.53-1.22-.53h-1.24c-1.2,0-1.8-.33-1.8-1v-.48c0-.67.62-1,1.84-1h.74c.22,0,.33.1.33.27s-.11.27-.33.27h-.73c-.76,0-1.14.17-1.14.5v.41c0,.33.36.49,1.08.49H119c1.32,0,2,.35,2,1Z"/><path class="cls-1" d="M137.52,43c-1.29,0-1.93-.42-1.93-1.29v-3c0-.19.12-.28.35-.28s.36.09.36.28v3c0,.52.41.77,1.25.77h2.72c.22,0,.33.1.33.27s-.11.27-.33.27Z"/><path class="cls-1" d="M141.06,38.65c0-.19.12-.28.36-.28s.35.09.35.28v4.06c0,.18-.13.28-.36.28s-.35-.1-.35-.28Z"/><path class="cls-1" d="M143.25,38.52l4,3.49V38.64c0-.18.11-.27.35-.27s.36.09.36.27v4.07c0,.18-.13.28-.38.28a.5.5,0,0,1-.35-.16l-4-3.49v3.37c0,.18-.12.28-.36.28s-.35-.1-.35-.28V38.65c0-.19.13-.28.37-.28A.49.49,0,0,1,143.25,38.52Z"/><path class="cls-1" d="M150.61,43q-1.92,0-1.92-1.26v-2c0-.83.63-1.25,1.89-1.25h.94c.21,0,.33.1.33.27s-.12.27-.33.27h-.93c-.79,0-1.19.24-1.19.72v.74h3.91c.21,0,.32.09.32.26s-.11.25-.32.25H149.4v.76c0,.49.4.74,1.24.74h2.67c.23,0,.34.1.34.27s-.11.27-.34.27Z"/><path class="cls-1" d="M155,38.52,159,42V38.64q0-.27.36-.27c.23,0,.35.09.35.27v4.07c0,.18-.12.28-.37.28a.48.48,0,0,1-.35-.16l-4-3.49v3.37c0,.18-.12.28-.36.28s-.35-.1-.35-.28V38.65c0-.19.13-.28.37-.28A.49.49,0,0,1,155,38.52Z"/><path class="cls-1" d="M165.3,41.91c0,.69-.67,1-2,1h-2.67c-.22,0-.34-.09-.34-.27s.12-.27.34-.27h2.67c.85,0,1.28-.18,1.28-.54V41.4c0-.35-.4-.53-1.22-.53h-1.24c-1.2,0-1.79-.33-1.79-1v-.48c0-.67.62-1,1.84-1h.73c.22,0,.33.1.33.27s-.11.27-.33.27h-.73c-.75,0-1.13.17-1.13.5v.41c0,.33.36.49,1.07.49h1.2c1.32,0,2,.35,2,1Z"/><path class="cls-1" d="M180.38,41.91c0,.69-.67,1-2,1h-2.67c-.21,0-.33-.09-.33-.27s.12-.27.33-.27h2.67q1.29,0,1.29-.54V41.4c0-.35-.41-.53-1.22-.53h-1.24c-1.2,0-1.8-.33-1.8-1v-.48c0-.67.62-1,1.84-1H178c.22,0,.33.1.33.27s-.11.27-.33.27h-.73c-.76,0-1.14.17-1.14.5v.41c0,.33.36.49,1.08.49h1.2c1.32,0,2,.35,2,1Z"/><path class="cls-1" d="M182.89,43c-1.28,0-1.93-.42-1.93-1.29v-3c0-.19.12-.28.36-.28s.35.09.35.28v3c0,.52.42.77,1.25.77h1.44c.83,0,1.24-.25,1.24-.77v-3c0-.19.13-.28.36-.28s.36.09.36.28v3c0,.87-.66,1.29-1.93,1.29Z"/><path class="cls-1" d="M187.08,38.65c0-.19.13-.28.37-.28s.34.09.34.28v4.06c0,.18-.12.28-.36.28s-.35-.1-.35-.28Z"/><path class="cls-1" d="M190.37,38.94h-1.8c-.22,0-.33-.08-.33-.27s.11-.27.33-.27h4.29c.23,0,.34.1.34.27s-.11.27-.34.27h-1.78v3.77c0,.18-.12.28-.35.28s-.36-.1-.36-.28Z"/><path class="cls-1" d="M198.5,41.91c0,.69-.67,1-2,1h-2.67c-.21,0-.33-.09-.33-.27s.12-.27.33-.27h2.67q1.29,0,1.29-.54V41.4c0-.35-.4-.53-1.22-.53h-1.24c-1.2,0-1.8-.33-1.8-1v-.48c0-.67.62-1,1.84-1h.74c.22,0,.33.1.33.27s-.11.27-.33.27h-.73c-.76,0-1.14.17-1.14.5v.41c0,.33.36.49,1.08.49h1.2c1.32,0,2,.35,2,1Z"/></g></g></svg>