<svg xmlns="http://www.w3.org/2000/svg" xmlns:xlink="http://www.w3.org/1999/xlink" viewBox="0 0 217.24 53.61"><defs><style>.cls-1{fill:none;}.cls-2{clip-path:url(#clip-path);}.cls-3{fill:#747474;}.cls-4{fill:#dd0303;}.cls-5{fill:#fc0102;}</style><clipPath id="clip-path" transform="translate(-5 -5.02)"><rect class="cls-1" width="63.65" height="63.65"/></clipPath></defs><g id="Layer_2" data-name="Layer 2"><g id="Layer_1-2" data-name="Layer 1"><g class="cls-2"><path class="cls-3" d="M50.75,12.87A25.88,25.88,0,0,0,33.05,5a28.27,28.27,0,0,0-4,.11,25.87,25.87,0,0,0-16.19,7.76A25.85,25.85,0,0,0,5,30.6a26,26,0,0,0,7.84,20.17A25.78,25.78,0,0,0,30.45,58.6a26,26,0,0,0,20.3-7.83,26.11,26.11,0,0,0,7.84-17.5c0-.48,0-1,0-1.45a26.37,26.37,0,0,0-7.89-19M31.73,56A24.18,24.18,0,0,1,29,7.81a26.16,26.16,0,0,1,3-.17A24.21,24.21,0,0,1,56,31.83c0,.48,0,1-.05,1.44A24.22,24.22,0,0,1,31.73,56" transform="translate(-5 -5.02)"/><path d="M21.6,13.39c0,.2,0,.41,0,.61a64.22,64.22,0,0,0-.13,9,53.07,53.07,0,0,0,.84,7.33c.41,2.07.85,4.14,1.42,6.17s1.3,4.12,2,6.14a54.4,54.4,0,0,0,2.94,6.57c1,1.82,2,3.6,3,5.4l.2.32c.08-.1.15-.16.2-.24a70.38,70.38,0,0,0,4.11-7.78C37,45,37.8,43.15,38.5,41.24c.63-1.75,1.15-3.54,1.67-5.33a47.78,47.78,0,0,0,1.39-6.6c.26-1.89.44-3.78.61-5.68a54.18,54.18,0,0,0,.06-7.32c0-.85-.12-1.71-.18-2.56a2.63,2.63,0,0,1,0-.3,1.63,1.63,0,0,1,.2.11,22.35,22.35,0,0,1,6.37,7.91,2.72,2.72,0,0,1,.11.25.43.43,0,0,1-.23.64c-.48.21-1,.4-1.46.6s-.48.31-.31.73A7.67,7.67,0,0,0,48.15,26c.68.77.79.65.4,1.77s-.61,2.18-.94,3.27a54.57,54.57,0,0,1-5.27,12,47.1,47.1,0,0,1-5.75,7.87,32,32,0,0,1-4.31,3.91c-.45.34-.44.33-.89,0a39.77,39.77,0,0,1-9.65-11,47,47,0,0,1-4.68-9.81c-.54-1.59-1.1-3.18-1.63-4.78-.23-.69-.4-1.4-.59-2.09a.87.87,0,0,1,.23-.88,9.72,9.72,0,0,0,1.81-2.72c.15-.39.1-.53-.3-.69l-1.36-.53c-.5-.2-.54-.33-.33-.81a20.7,20.7,0,0,1,4.34-6.21c.54-.54,1.12-1.06,1.69-1.57a6.36,6.36,0,0,1,.59-.43l.09.05" transform="translate(-5 -5.02)"/><path class="cls-4" d="M38.71,14.92a9.59,9.59,0,0,1-.53,3.14c-.08.21-.23.34-.46.23-1.2-.53-2.39-1.07-3.58-1.62a1.34,1.34,0,0,1-.42-.28,1,1,0,0,0-1-.26,4.47,4.47,0,0,1-1.71,0,1.3,1.3,0,0,0-1.08.26,13.25,13.25,0,0,1-1.71.9c-.68.32-1.38.61-2.06.93-.42.19-.57.14-.71-.3A9.33,9.33,0,0,1,25,13.44c.11-.61.27-1.22.43-1.82.08-.32.25-.4.54-.27,1.17.52,2.33,1.05,3.5,1.59a1.75,1.75,0,0,1,.48.34.89.89,0,0,0,.83.23,5,5,0,0,1,2.07,0,.83.83,0,0,0,.77-.21,7,7,0,0,1,1.89-1c.65-.28,1.31-.57,2-.87.44-.2.58-.17.73.28a9.36,9.36,0,0,1,.5,2.87v.35" transform="translate(-5 -5.02)"/><path d="M30.48,42.76a1.5,1.5,0,0,1,1.38-1.39,1.54,1.54,0,0,1,1.37,1.39,1.49,1.49,0,0,1-1.36,1.38,1.47,1.47,0,0,1-1.39-1.38" transform="translate(-5 -5.02)"/><path d="M30.48,22.11a1.47,1.47,0,0,1,1.36-1.37,1.49,1.49,0,0,1,1.39,1.39,1.53,1.53,0,0,1-1.37,1.38,1.49,1.49,0,0,1-1.38-1.4" transform="translate(-5 -5.02)"/><path d="M30.48,32.44a1.47,1.47,0,0,1,1.35-1.38,1.38,1.38,0,1,1,0,2.76,1.45,1.45,0,0,1-1.37-1.38" transform="translate(-5 -5.02)"/></g><path class="cls-5" d="M72.69,18h-8c-1,0-1.46-.38-1.46-1.2s.5-1.2,1.46-1.2H83.8c1,0,1.49.41,1.49,1.17S84.8,18,83.8,18h-8V34.72c0,.82-.53,1.22-1.56,1.22s-1.6-.4-1.6-1.22Z" transform="translate(-5 -5.02)"/><path class="cls-5" d="M87.11,29.66v1.78c0,1.37,1.35,2.08,4.07,2.08H95.5c1,0,1.47.38,1.47,1.14s-.5,1.14-1.47,1.14H91.18c-4.74,0-7.14-1.44-7.14-4.33V25.74c0-2.75,2.13-4.16,6.38-4.16h8.45c4.15,0,6.23,1.26,6.23,3.75V28.6c0,.7-.47,1.06-1.35,1.06Zm0-2h14.68c.18,0,.24-.09.24-.21V25.91c0-1.34-1.11-2-3.4-2h-8c-2.34,0-3.48.68-3.48,2Z" transform="translate(-5 -5.02)"/><path class="cls-5" d="M117,30.24l-7.78,5.3a1.73,1.73,0,0,1-1.23.4c-1,0-1.52-.4-1.52-1.16a1.3,1.3,0,0,1,.7-1.06l7.49-5.12-7-4.88a1.32,1.32,0,0,1-.73-1.11c0-.79.52-1.17,1.58-1.17a2,2,0,0,1,1.28.44l7.46,5.17,7.58-5.17a2,2,0,0,1,1.23-.44c1,0,1.52.41,1.52,1.2a1.32,1.32,0,0,1-.7,1.05l-7.29,5,7.26,5a1.45,1.45,0,0,1,.73,1.12c0,.78-.53,1.16-1.58,1.16a1.89,1.89,0,0,1-1.32-.43Z" transform="translate(-5 -5.02)"/><path class="cls-5" d="M144.74,22.37l5.18,9.68,4.91-9.74a1.52,1.52,0,0,1,1.5-.87c.93,0,1.54.46,1.54,1.2a1.44,1.44,0,0,1-.2.73L151.5,35a1.55,1.55,0,0,1-1.55,1,1.52,1.52,0,0,1-1.52-.93l-5.24-9.57L138,35a1.54,1.54,0,0,1-1.52.93,1.5,1.5,0,0,1-1.55-1l-6.2-11.61a1.49,1.49,0,0,1-.17-.73c0-.74.61-1.2,1.55-1.2a1.54,1.54,0,0,1,1.52.87L136.46,32l5.18-9.66a1.76,1.76,0,0,1,3.1,0Z" transform="translate(-5 -5.02)"/><path class="cls-5" d="M166.77,35.8c-5.06,0-7.57-1.55-7.57-4.62V26.23c0-3.1,2.51-4.65,7.57-4.65h5.65c5.06,0,7.57,1.55,7.57,4.65v4.95c0,3.07-2.51,4.62-7.57,4.62Zm10.09-9.6c0-1.49-1.46-2.22-4.35-2.22h-5.85c-2.87,0-4.33.73-4.33,2.22v5c0,1.46,1.46,2.22,4.33,2.22h5.85c2.89,0,4.35-.76,4.35-2.22Z" transform="translate(-5 -5.02)"/><path class="cls-5" d="M182.48,26.23q0-4.65,7.55-4.65h2.25c1,0,1.49.41,1.49,1.2s-.49,1.2-1.49,1.2h-2.37c-2.86,0-4.33.73-4.33,2.2v8.54c0,.82-.52,1.22-1.55,1.22s-1.55-.43-1.55-1.22Z" transform="translate(-5 -5.02)"/><path class="cls-5" d="M195.47,16.23c0-.79.53-1.23,1.55-1.23s1.55.44,1.55,1.23V34.72c0,.82-.52,1.22-1.55,1.22s-1.55-.4-1.55-1.22Z" transform="translate(-5 -5.02)"/><path class="cls-5" d="M208.78,35.8c-5,0-7.54-1.55-7.54-4.62V26.23c0-3.1,2.54-4.65,7.54-4.65h10.33V16.23c0-.79.55-1.23,1.58-1.23s1.55.44,1.55,1.23v15c0,3.07-2.52,4.62-7.55,4.62Zm10.33-4.59V24H208.69c-2.86,0-4.32.73-4.32,2.22v5c0,1.46,1.46,2.22,4.32,2.22h6.09C217.64,33.43,219.11,32.67,219.11,31.21Z" transform="translate(-5 -5.02)"/><path class="cls-5" d="M83.9,48C82.62,48,82,47.54,82,46.68v-3q0-.27.36-.27c.23,0,.35.09.35.27v3c0,.51.42.77,1.25.77h1.43c.84,0,1.25-.26,1.25-.77v-3q0-.27.36-.27c.23,0,.35.09.35.27v3c0,.86-.65,1.29-1.92,1.29Z" transform="translate(-5 -5.02)"/><path class="cls-5" d="M88.8,43.53l4,3.5V43.66c0-.18.12-.27.35-.27s.36.09.36.27v4.07c0,.18-.13.27-.38.27a.46.46,0,0,1-.34-.15l-4-3.5v3.38c0,.18-.13.27-.36.27s-.35-.09-.35-.27V43.67c0-.19.12-.28.37-.28A.47.47,0,0,1,88.8,43.53Z" transform="translate(-5 -5.02)"/><path class="cls-5" d="M94.26,43.66c0-.18.12-.27.37-.27s.34.09.34.27v4.07c0,.18-.13.27-.36.27s-.35-.09-.35-.27Z" transform="translate(-5 -5.02)"/><path class="cls-5" d="M95.72,44.64c0-.81.63-1.22,1.9-1.22h.77q.33,0,.33.27t-.33.27h-.77c-.79,0-1.19.24-1.19.7v.79h3.9c.22,0,.32.09.32.27s-.1.27-.32.27h-3.9v1.74c0,.18-.12.27-.35.27s-.36-.09-.36-.27Z" transform="translate(-5 -5.02)"/><path class="cls-5" d="M103.08,48q-1.92,0-1.92-1.26v-2q0-1.26,1.89-1.26h1.47q1.89,0,1.89,1.26v2c0,.84-.64,1.26-1.93,1.26Zm2.62-3.28c0-.49-.4-.73-1.2-.73h-1.44c-.79,0-1.19.24-1.19.73v2c0,.49.4.74,1.21.74h1.41c.81,0,1.21-.25,1.21-.74Z" transform="translate(-5 -5.02)"/><path class="cls-5" d="M107.87,46.19v1.54c0,.18-.13.27-.37.27s-.34-.09-.34-.27V43.65c0-.15.1-.23.3-.23h3.09c1.36,0,2,.37,2,1.12V45c0,.73-.68,1.1-2,1.1H109l3,1.34a.26.26,0,0,1,.19.26c0,.17-.13.28-.36.28a.48.48,0,0,1-.25-.06Zm0-.57h2.7c.88,0,1.31-.2,1.31-.6v-.47c0-.39-.43-.59-1.31-.59h-2.65s0,0,0,0Z" transform="translate(-5 -5.02)"/><path class="cls-5" d="M119.68,44.59l-2.51,3.23a.42.42,0,0,1-.37.18.44.44,0,0,1-.37-.18l-2.49-3.22v3.13q0,.27-.36.27c-.23,0-.35-.09-.35-.27v-4c0-.2.13-.3.36-.3a.48.48,0,0,1,.41.19l2.8,3.65,2.82-3.64a.48.48,0,0,1,.4-.2c.24,0,.37.1.37.3v4c0,.18-.13.27-.36.27s-.35-.09-.35-.27Z" transform="translate(-5 -5.02)"/><path class="cls-5" d="M126,46.92c0,.7-.67,1-2,1h-2.67c-.22,0-.34-.09-.34-.27s.12-.27.34-.27H124c.85,0,1.28-.18,1.28-.55v-.46c0-.36-.4-.53-1.22-.53h-1.24c-1.2,0-1.8-.33-1.8-1v-.48c0-.67.62-1,1.85-1h.73q.33,0,.33.27t-.33.27h-.73c-.75,0-1.13.16-1.13.5v.41c0,.33.36.48,1.07.48H124c1.32,0,2,.35,2,1Z" transform="translate(-5 -5.02)"/><path class="cls-5" d="M142.52,48c-1.28,0-1.93-.43-1.93-1.29v-3c0-.18.12-.27.35-.27s.36.09.36.27v3c0,.51.41.77,1.25.77h2.72q.33,0,.33.27t-.33.27Z" transform="translate(-5 -5.02)"/><path class="cls-5" d="M146.06,43.66c0-.18.13-.27.37-.27s.34.09.34.27v4.07c0,.18-.13.27-.36.27s-.35-.09-.35-.27Z" transform="translate(-5 -5.02)"/><path class="cls-5" d="M148.25,43.53l4,3.5V43.66c0-.18.12-.27.35-.27s.36.09.36.27v4.07c0,.18-.13.27-.38.27a.46.46,0,0,1-.34-.15l-4-3.5v3.38c0,.18-.13.27-.37.27s-.34-.09-.34-.27V43.67c0-.19.12-.28.37-.28A.47.47,0,0,1,148.25,43.53Z" transform="translate(-5 -5.02)"/><path class="cls-5" d="M155.61,48q-1.92,0-1.92-1.26V44.66c0-.83.63-1.24,1.89-1.24h.94q.33,0,.33.27t-.33.27h-.93c-.79,0-1.19.24-1.19.72v.74h3.92c.21,0,.31.08.31.25s-.1.26-.31.26H154.4v.76c0,.49.41.74,1.25.74h2.67q.33,0,.33.27t-.33.27Z" transform="translate(-5 -5.02)"/><path class="cls-5" d="M160,43.53l4,3.5V43.66c0-.18.11-.27.35-.27s.36.09.36.27v4.07c0,.18-.13.27-.38.27a.49.49,0,0,1-.35-.15l-4-3.5v3.38q0,.27-.36.27c-.23,0-.35-.09-.35-.27V43.67c0-.19.13-.28.37-.28A.47.47,0,0,1,160,43.53Z" transform="translate(-5 -5.02)"/><path class="cls-5" d="M170.3,46.92c0,.7-.67,1-2,1h-2.67c-.21,0-.33-.09-.33-.27s.12-.27.33-.27h2.67c.85,0,1.28-.18,1.28-.55v-.46c0-.36-.4-.53-1.21-.53h-1.25c-1.19,0-1.79-.33-1.79-1v-.48c0-.67.62-1,1.84-1h.74c.21,0,.32.09.32.27s-.11.27-.32.27h-.73c-.76,0-1.14.16-1.14.5v.41c0,.33.36.48,1.08.48h1.19c1.33,0,2,.35,2,1Z" transform="translate(-5 -5.02)"/><path class="cls-5" d="M185.38,46.92c0,.7-.67,1-2,1h-2.67c-.22,0-.34-.09-.34-.27s.12-.27.34-.27h2.67c.85,0,1.28-.18,1.28-.55v-.46c0-.36-.4-.53-1.22-.53h-1.24c-1.2,0-1.8-.33-1.8-1v-.48c0-.67.62-1,1.85-1H183q.33,0,.33.27T183,44h-.73c-.75,0-1.14.16-1.14.5v.41c0,.33.37.48,1.08.48h1.2c1.32,0,2,.35,2,1Z" transform="translate(-5 -5.02)"/><path class="cls-5" d="M187.89,48Q186,48,186,46.68v-3c0-.18.12-.27.35-.27s.36.09.36.27v3c0,.51.41.77,1.25.77h1.43c.84,0,1.24-.26,1.24-.77v-3c0-.18.13-.27.36-.27s.36.09.36.27v3c0,.86-.65,1.29-1.93,1.29Z" transform="translate(-5 -5.02)"/><path class="cls-5" d="M192.08,43.66c0-.18.13-.27.37-.27s.34.09.34.27v4.07q0,.27-.36.27c-.23,0-.35-.09-.35-.27Z" transform="translate(-5 -5.02)"/><path class="cls-5" d="M195.37,44h-1.8c-.21,0-.32-.09-.32-.27s.11-.27.32-.27h4.3c.22,0,.33.09.33.26s-.11.28-.33.28h-1.79v3.77c0,.18-.12.27-.35.27s-.36-.09-.36-.27Z" transform="translate(-5 -5.02)"/><path class="cls-5" d="M203.51,46.92c0,.7-.67,1-2,1h-2.67c-.22,0-.34-.09-.34-.27s.12-.27.34-.27h2.67c.85,0,1.28-.18,1.28-.55v-.46c0-.36-.4-.53-1.22-.53h-1.24c-1.2,0-1.79-.33-1.79-1v-.48c0-.67.61-1,1.84-1h.73q.33,0,.33.27t-.33.27h-.73c-.75,0-1.13.16-1.13.5v.41c0,.33.36.48,1.07.48h1.2c1.32,0,2,.35,2,1Z" transform="translate(-5 -5.02)"/></g></g></svg>